<?xml version="1.0" encoding="utf-8"?>
<!-- Generator: Adobe Illustrator 16.0.3, SVG Export Plug-In . SVG Version: 6.00 Build 0)  -->
<!DOCTYPE svg PUBLIC "-//W3C//DTD SVG 1.1//EN" "http://www.w3.org/Graphics/SVG/1.1/DTD/svg11.dtd">
<svg version="1.1"
	 id="Layer_114" xmlns:dc="http://purl.org/dc/elements/1.1/" xmlns:rdf="http://www.w3.org/1999/02/22-rdf-syntax-ns#" xmlns:cc="http://creativecommons.org/ns#"
	 xmlns="http://www.w3.org/2000/svg" xmlns:xlink="http://www.w3.org/1999/xlink" x="0px" y="0px" width="128px" height="128px"
	 viewBox="-73.335 370.826 128 128" enable-background="new -73.335 370.826 128 128" xml:space="preserve">
<linearGradient id="SVGID_1_" gradientUnits="userSpaceOnUse" x1="-637.2205" y1="109.1125" x2="-538.656" y2="109.1125" gradientTransform="matrix(0 -1 -1 0 99.7173 -552.0933)">
	<stop  offset="0.0745" style="stop-color:#BC2025"/>
	<stop  offset="0.2588" style="stop-color:#B2464E"/>
	<stop  offset="0.4471" style="stop-color:#D84A55"/>
	<stop  offset="0.9647" style="stop-color:#E87E86"/>
</linearGradient>
<rect x="-101.443" y="-13.437" fill="url(#SVGID_1_)" width="184.096" height="98.564"/>
<rect x="-395.335" y="-89.154" fill="#BC2025" width="772" height="250.002"/>
<rect x="-73.335" y="370.826" fill="#BC2025" width="128" height="128"/>
<g>
	
		<linearGradient id="SVGID_2_" gradientUnits="userSpaceOnUse" x1="374.9192" y1="-97.9592" x2="356.4025" y2="31.6576" gradientTransform="matrix(1 0 0 1 -82.624 0)">
		<stop  offset="0" style="stop-color:#E50A0A"/>
		<stop  offset="1" style="stop-color:#D3D3D3"/>
	</linearGradient>
	<path fill="url(#SVGID_2_)" d="M307.684-56.61c0,11.76-9.533,21.294-21.293,21.294c-11.762,0-21.297-9.534-21.297-21.294
		c0-11.763,9.535-21.294,21.297-21.294C298.151-77.904,307.684-68.373,307.684-56.61z"/>
	
		<linearGradient id="SVGID_3_" gradientUnits="userSpaceOnUse" x1="355.2678" y1="-131.6257" x2="318.4738" y2="197.0684" gradientTransform="matrix(1 0 0 1 -82.624 0)">
		<stop  offset="0" style="stop-color:#E50A0A"/>
		<stop  offset="1" style="stop-color:#D3D3D3"/>
	</linearGradient>
	<path fill="url(#SVGID_3_)" d="M260.478-20.1c0,0-23.159,38.482-71.304,37.557c0,0,51.847,8.332,70.365-6.479l2.777,135.173
		c0,0,11.111,8.334,18.517-0.927l2.778-74.992l5.555,74.069c0,0,5.555,10.184,18.518,0V9.122c0,0,11.111,18.521,6.48,57.404
		c0,0,19.105-48.848-6.693-87.547C307.471-21.02,285.356-44.976,260.478-20.1z"/>
	
		<linearGradient id="SVGID_4_" gradientUnits="userSpaceOnUse" x1="280.7747" y1="15.4187" x2="268.7385" y2="198.7409" gradientTransform="matrix(1 0 0 1 -82.624 0)">
		<stop  offset="0" style="stop-color:#E50A0A"/>
		<stop  offset="1" style="stop-color:#D3D3D3"/>
	</linearGradient>
	<polygon fill="url(#SVGID_4_)" points="227.454,32.27 216.949,138.359 177.137,138.359 166.631,32.27 160.473,32.27 
		171.582,147.077 222.504,147.077 233.615,32.27 	"/>
	
		<linearGradient id="SVGID_5_" gradientUnits="userSpaceOnUse" x1="275.593" y1="13.6589" x2="276.5189" y2="96.9862" gradientTransform="matrix(1 0 0 1 -82.624 0)">
		<stop  offset="0" style="stop-color:#E50A0A"/>
		<stop  offset="1" style="stop-color:#D3D3D3"/>
	</linearGradient>
	<path fill="url(#SVGID_5_)" d="M197.198,31.553c-2.71-6.104-10.454-10.248-11.552-3.86c-1.094,6.386,7.404,11.603,7.404,11.603
		l7.772-1.487L197.198,31.553z"/>
	
		<linearGradient id="SVGID_6_" gradientUnits="userSpaceOnUse" x1="278.2268" y1="13.6345" x2="279.1526" y2="96.9546" gradientTransform="matrix(1 0 0 1 -82.624 0)">
		<stop  offset="0" style="stop-color:#E50A0A"/>
		<stop  offset="1" style="stop-color:#D3D3D3"/>
	</linearGradient>
	<path fill="url(#SVGID_6_)" d="M195.069,53.565c-4.164,2.778-6.25,9.028-1.389,9.028c4.86,0,7.639-6.943,7.639-6.943l-2.084-5.555
		L195.069,53.565z"/>
	
		<linearGradient id="SVGID_7_" gradientUnits="userSpaceOnUse" x1="291.054" y1="13.491" x2="291.9798" y2="96.8135" gradientTransform="matrix(1 0 0 1 -82.624 0)">
		<stop  offset="0" style="stop-color:#E50A0A"/>
		<stop  offset="1" style="stop-color:#D3D3D3"/>
	</linearGradient>
	<path fill="url(#SVGID_7_)" d="M208.156,65.948c-3.645,2.433-5.468,7.9-1.215,7.9s6.685-6.075,6.685-6.075l-1.823-4.862
		L208.156,65.948z"/>
	
		<linearGradient id="SVGID_8_" gradientUnits="userSpaceOnUse" x1="272.3538" y1="13.717" x2="273.2793" y2="97.0171" gradientTransform="matrix(1 0 0 1 -82.624 0)">
		<stop  offset="0" style="stop-color:#E50A0A"/>
		<stop  offset="1" style="stop-color:#D3D3D3"/>
	</linearGradient>
	<path fill="url(#SVGID_8_)" d="M189.643,82.615c-3.648,2.431-5.469,7.896-1.219,7.896c4.256,0,6.685-6.075,6.685-6.075
		l-1.821-4.858L189.643,82.615z"/>
</g>
<g>
	
		<linearGradient id="SVGID_9_" gradientUnits="userSpaceOnUse" x1="101.387" y1="365.6711" x2="91.6786" y2="433.6296" gradientTransform="matrix(1 0 0 1 -82.624 0)">
		<stop  offset="0" style="stop-color:#E50A0A"/>
		<stop  offset="1" style="stop-color:#D3D3D3"/>
	</linearGradient>
	<circle fill="url(#SVGID_9_)" cx="15.666" cy="387.351" r="11.165"/>
	
		<linearGradient id="SVGID_10_" gradientUnits="userSpaceOnUse" x1="91.0837" y1="348.0208" x2="71.7925" y2="520.3563" gradientTransform="matrix(1 0 0 1 -82.624 0)">
		<stop  offset="0" style="stop-color:#E50A0A"/>
		<stop  offset="1" style="stop-color:#D3D3D3"/>
	</linearGradient>
	<path fill="url(#SVGID_10_)" d="M2.08,406.493c0,0-12.143,20.176-37.385,19.69c0,0,27.184,4.369,36.893-3.396l1.456,70.871
		c0,0,5.826,4.369,9.708-0.486l1.457-39.318l2.913,38.835c0,0,2.912,5.339,9.708,0v-70.874c0,0,5.826,9.71,3.398,30.097
		c0,0,10.017-25.61-3.509-45.9C26.719,406.011,15.124,393.45,2.08,406.493z"/>
	
		<linearGradient id="SVGID_11_" gradientUnits="userSpaceOnUse" x1="52.0261" y1="425.1155" x2="45.7155" y2="521.2317" gradientTransform="matrix(1 0 0 1 -82.624 0)">
		<stop  offset="0" style="stop-color:#E50A0A"/>
		<stop  offset="1" style="stop-color:#D3D3D3"/>
	</linearGradient>
	<polygon fill="url(#SVGID_11_)" points="-15.234,433.95 -20.741,489.573 -41.615,489.573 -47.123,433.95 -50.352,433.95 
		-44.528,494.145 -17.829,494.145 -12.004,433.95 	"/>
	
		<linearGradient id="SVGID_12_" gradientUnits="userSpaceOnUse" x1="49.3093" y1="424.1936" x2="49.7948" y2="467.8842" gradientTransform="matrix(1 0 0 1 -82.624 0)">
		<stop  offset="0" style="stop-color:#E50A0A"/>
		<stop  offset="1" style="stop-color:#D3D3D3"/>
	</linearGradient>
	<path fill="url(#SVGID_12_)" d="M-31.097,433.575c-1.421-3.201-5.481-5.373-6.057-2.024c-0.573,3.348,3.882,6.083,3.882,6.083
		l4.075-0.779L-31.097,433.575z"/>
	
		<linearGradient id="SVGID_13_" gradientUnits="userSpaceOnUse" x1="50.6897" y1="424.1838" x2="51.175" y2="467.8622" gradientTransform="matrix(1 0 0 1 -82.624 0)">
		<stop  offset="0" style="stop-color:#E50A0A"/>
		<stop  offset="1" style="stop-color:#D3D3D3"/>
	</linearGradient>
	<path fill="url(#SVGID_13_)" d="M-32.214,445.115c-2.183,1.457-3.277,4.733-0.728,4.733c2.548,0,4.005-3.64,4.005-3.64
		l-1.093-2.913L-32.214,445.115z"/>
	
		<linearGradient id="SVGID_14_" gradientUnits="userSpaceOnUse" x1="57.4153" y1="424.0969" x2="57.9008" y2="467.7958" gradientTransform="matrix(1 0 0 1 -82.624 0)">
		<stop  offset="0" style="stop-color:#E50A0A"/>
		<stop  offset="1" style="stop-color:#D3D3D3"/>
	</linearGradient>
	<path fill="url(#SVGID_14_)" d="M-25.352,451.609c-1.911,1.275-2.867,4.143-0.637,4.143c2.229,0,3.504-3.186,3.504-3.186
		l-0.956-2.55L-25.352,451.609z"/>
	
		<linearGradient id="SVGID_15_" gradientUnits="userSpaceOnUse" x1="47.6111" y1="424.2288" x2="48.0963" y2="467.8977" gradientTransform="matrix(1 0 0 1 -82.624 0)">
		<stop  offset="0" style="stop-color:#E50A0A"/>
		<stop  offset="1" style="stop-color:#D3D3D3"/>
	</linearGradient>
	<path fill="url(#SVGID_15_)" d="M-35.058,460.347c-1.913,1.274-2.867,4.14-0.639,4.14c2.231,0,3.505-3.186,3.505-3.186
		l-0.955-2.547L-35.058,460.347z"/>
</g>
</svg>
